<?xml version="1.0" standalone="no"?>
<!DOCTYPE svg PUBLIC "-//W3C//DTD SVG 20010904//EN"
 "http://www.w3.org/TR/2001/REC-SVG-20010904/DTD/svg10.dtd">
<svg version="1.0" xmlns="http://www.w3.org/2000/svg"
 width="1542.000000pt" height="1336.000000pt" viewBox="0 0 1542.000000 1336.000000"
 preserveAspectRatio="xMidYMid meet">

<g transform="translate(0.000000,1336.000000) scale(0.100000,-0.100000)"
fill="#000000" stroke="none">
<path d="M5660 12694 c-21 -5 -1974 -494 -2330 -585 -156 -39 -245 -85 -335
-171 -53 -50 -84 -90 -113 -146 -76 -146 -73 -126 -82 -727 -5 -297 -11 -585
-14 -640 -4 -55 -11 -208 -16 -340 -24 -556 -76 -1121 -140 -1515 -31 -188
-68 -354 -127 -555 -30 -104 -58 -203 -63 -220 -4 -16 -26 -93 -48 -170 -167
-572 -232 -971 -232 -1417 0 -474 80 -896 264 -1392 53 -143 57 -158 91 -441
7 -60 48 -382 90 -715 42 -333 81 -648 87 -700 12 -110 26 -143 71 -170 30
-19 52 -20 324 -20 l293 0 5 -23 c29 -136 34 -333 10 -436 -49 -205 -204 -324
-500 -383 -90 -18 -160 -21 -725 -28 -653 -8 -728 -13 -921 -59 -322 -76 -547
-233 -739 -515 -93 -138 -98 -272 -13 -360 52 -53 124 -83 230 -96 177 -20
854 -73 1408 -110 165 -11 334 -22 375 -25 158 -11 597 -36 885 -50 510 -26
1395 -61 1750 -70 127 -3 316 -8 420 -11 449 -14 1341 -21 2625 -21 1331 0
1660 4 2030 26 96 6 292 12 435 13 493 3 1307 37 1852 78 784 59 1141 148
1458 364 425 289 598 794 473 1376 -29 137 -73 268 -108 323 -16 26 -30 51
-29 55 0 4 40 27 89 50 202 99 369 317 416 543 15 75 22 466 9 574 -48 416
-341 847 -779 1147 -169 116 -308 186 -963 488 -362 167 -831 383 -1042 481
l-385 177 -2 69 c-3 122 -58 209 -166 263 -109 54 -229 39 -337 -44 -19 -14
-41 -26 -49 -26 -14 0 -106 40 -310 136 -51 24 -95 44 -97 44 -1 0 -54 24
-116 54 -63 29 -123 56 -134 59 -18 6 -20 16 -21 89 0 98 -21 154 -83 221 -57
62 -120 91 -209 95 -94 5 -147 -10 -224 -64 l-62 -43 -56 31 c-208 119 -625
396 -625 417 0 3 15 37 34 74 59 118 45 241 -40 348 -55 70 -142 110 -241 110
-81 0 -129 -15 -204 -67 l-66 -45 -141 143 c-143 145 -302 320 -414 457 l-61
75 25 32 c61 80 79 202 46 304 -21 65 -89 143 -155 176 -67 34 -168 43 -234
20 -38 -13 -50 -14 -56 -4 -122 198 -378 675 -378 706 0 4 28 22 61 38 84 40
143 106 169 191 25 82 25 114 0 196 -54 173 -243 265 -417 202 -29 -10 -54
-17 -56 -14 -10 11 -287 891 -287 910 0 9 11 21 24 27 44 20 107 84 134 136
23 44 26 63 27 146 0 106 -15 146 -81 220 -56 62 -133 95 -224 95 -41 0 -78 5
-83 10 -4 6 -16 42 -28 80 -75 250 -253 433 -503 517 -75 25 -109 31 -206 33
-63 2 -126 1 -140 -1z m229 -259 c128 -31 255 -121 318 -227 28 -46 98 -227
90 -234 -1 -1 -171 -62 -377 -134 -206 -73 -391 -140 -412 -151 -55 -28 -107
-84 -137 -148 -21 -46 -26 -70 -26 -136 1 -67 5 -89 29 -135 48 -95 109 -146
211 -175 40 -12 73 -15 108 -11 27 4 208 63 401 131 194 68 363 126 377 130
25 6 26 3 78 -162 30 -92 59 -186 66 -208 7 -22 41 -128 75 -235 33 -107 72
-225 85 -262 15 -42 20 -70 14 -74 -6 -3 -155 -73 -332 -155 -177 -81 -342
-163 -367 -181 -121 -90 -161 -255 -95 -394 64 -133 221 -210 360 -175 25 6
186 76 359 156 173 80 317 145 320 145 4 0 28 -46 54 -102 59 -126 180 -352
275 -512 64 -110 68 -120 52 -132 -9 -7 -166 -102 -347 -211 -181 -109 -345
-213 -364 -231 -19 -18 -47 -57 -62 -85 -23 -46 -27 -63 -26 -142 0 -108 21
-162 86 -228 83 -82 214 -117 319 -84 25 8 209 112 409 232 199 120 368 218
375 219 6 0 45 -39 85 -89 118 -144 223 -259 389 -427 85 -87 153 -159 151
-161 -3 -2 -61 -45 -130 -95 -323 -233 -437 -322 -467 -361 -95 -124 -76 -326
40 -427 78 -67 111 -79 217 -79 81 0 102 4 140 24 25 13 192 131 372 262 180
132 332 239 338 239 7 0 37 -19 68 -43 125 -95 290 -206 489 -329 57 -35 103
-66 103 -70 0 -3 -116 -91 -257 -194 -142 -103 -271 -199 -286 -213 -15 -14
-42 -55 -60 -90 -60 -123 -37 -268 58 -365 57 -57 146 -96 221 -96 120 0 130
6 544 310 113 82 257 188 321 235 l116 84 297 -136 c163 -76 295 -140 294
-144 -2 -4 -79 -63 -173 -131 -275 -200 -281 -204 -313 -253 -131 -198 15
-469 253 -469 96 0 133 22 513 300 l363 265 265 -122 c145 -67 264 -125 264
-128 0 -3 -46 -36 -103 -72 -323 -210 -551 -313 -817 -371 -91 -19 -134 -22
-325 -22 -254 0 -272 3 -580 106 -596 199 -1174 484 -1770 872 -851 554 -1400
1028 -1830 1581 -406 521 -733 1176 -1026 2055 -65 196 -664 2269 -657 2276 2
1 181 48 398 103 422 106 465 112 579 86z m-929 -1295 c323 -1129 337 -1174
450 -1490 458 -1277 995 -2072 1910 -2832 121 -100 156 -127 335 -262 303
-227 759 -527 1095 -722 500 -288 1200 -586 1647 -699 134 -34 352 -49 526
-36 401 30 720 159 1225 497 l154 102 146 -68 c81 -37 374 -172 651 -299 277
-128 545 -255 595 -283 448 -252 741 -586 847 -966 18 -65 22 -112 26 -305 l5
-227 -2369 0 c-1584 0 -2397 3 -2453 10 -108 14 -307 55 -385 79 -33 11 -244
82 -470 159 -358 123 -587 201 -1275 437 -786 270 -1514 531 -1925 690 -596
231 -993 342 -1420 394 -199 24 -300 29 -795 37 -217 3 -397 8 -400 9 -3 2
-119 5 -258 6 -140 1 -266 5 -282 7 -28 4 -30 8 -49 96 -54 243 -81 483 -81
731 0 454 65 812 284 1560 101 346 127 447 160 625 115 619 177 1443 195 2635
9 508 10 543 30 594 40 106 118 184 216 217 79 27 1329 343 1349 341 17 -2 59
-139 316 -1037z m1697 648 c36 -33 30 -83 -12 -106 -43 -22 -963 -342 -985
-342 -57 0 -83 82 -37 116 24 18 961 352 991 353 11 1 30 -9 43 -21z m603
-1531 c29 -52 10 -63 -490 -294 -255 -119 -475 -215 -488 -215 -50 0 -80 64
-49 105 11 15 888 429 947 447 30 9 59 -7 80 -43z m578 -1307 c29 -27 28 -71
0 -97 -13 -11 -216 -136 -451 -277 -293 -175 -438 -256 -457 -256 -54 0 -85
56 -54 97 24 31 892 553 919 553 12 0 31 -9 43 -20z m1116 -1112 c9 -12 16
-34 16 -49 0 -32 -9 -40 -310 -259 -124 -90 -290 -212 -370 -270 -170 -126
-184 -134 -216 -126 -31 8 -57 57 -45 88 5 14 168 139 412 318 221 162 412
300 423 307 34 20 73 16 90 -9z m1199 -880 c37 -50 24 -62 -374 -353 -477
-348 -471 -344 -490 -345 -29 0 -69 39 -69 69 0 38 10 47 135 138 61 44 160
116 220 160 61 44 198 144 304 222 213 155 234 164 274 109z m1231 -589 c29
-42 54 -22 -551 -462 -112 -81 -211 -147 -221 -147 -25 0 -42 20 -42 50 0 22
40 54 283 232 155 113 325 238 377 276 101 75 130 85 154 51z m-7824 -1270
c551 -11 693 -23 999 -85 297 -60 596 -153 1016 -316 282 -110 624 -236 950
-351 165 -58 341 -120 390 -137 149 -53 1205 -417 1420 -490 110 -38 371 -127
580 -198 390 -133 547 -177 740 -208 103 -17 270 -18 2464 -21 1295 -2 2357
-6 2359 -8 7 -7 -23 -48 -69 -95 -58 -59 -150 -116 -228 -143 l-66 -22 -2065
-3 c-2139 -3 -2269 -1 -2515 38 -249 40 -360 73 -1120 337 -71 24 -200 68
-285 98 -85 29 -337 116 -560 193 -223 77 -479 166 -570 197 -91 31 -214 74
-275 95 -60 21 -175 61 -255 88 -773 267 -1003 347 -1115 392 -310 125 -714
243 -1007 294 -188 33 -302 44 -538 51 -107 3 -355 10 -550 15 -195 6 -405 13
-466 16 l-111 6 -40 116 c-23 65 -45 128 -48 141 l-7 24 238 -7 c132 -3 462
-11 734 -17z m-75 -539 c573 -15 647 -21 895 -71 237 -47 497 -122 773 -224
l127 -47 0 -599 0 -599 -1170 0 -1169 0 -6 33 c-3 17 -46 356 -95 752 -49 396
-92 733 -95 749 l-5 29 187 -7 c104 -3 355 -10 558 -16z m2296 -521 c129 -44
437 -150 684 -236 248 -85 560 -193 695 -240 135 -46 270 -93 300 -103 30 -10
107 -37 170 -58 1567 -544 1543 -536 1837 -586 l138 -23 -2 -85 c-11 -361
-285 -679 -651 -753 -73 -15 -238 -17 -1609 -18 l-1528 -2 -85 22 c-174 45
-282 94 -429 191 -214 141 -388 380 -426 585 l-7 37 288 0 c264 0 291 2 317
19 60 39 57 4 57 689 1 546 3 642 16 642 1 0 107 -36 235 -81z m-1166 -1301
c41 -212 131 -397 271 -559 171 -199 438 -368 698 -443 208 -60 166 -59 1816
-53 1335 4 1514 7 1586 21 488 98 833 484 870 975 l7 91 438 0 c377 0 439 -2
439 -14 0 -54 35 -266 56 -341 50 -177 160 -366 271 -465 72 -65 206 -149 296
-187 428 -180 1191 -188 1606 -16 272 112 420 293 481 588 15 70 39 326 40
428 0 11 359 8 425 -4 72 -13 109 -31 153 -73 42 -39 63 -79 95 -181 70 -224
82 -497 30 -705 -95 -384 -420 -646 -933 -755 -191 -40 -576 -83 -990 -110
-463 -30 -1289 -61 -1710 -64 -107 -1 -271 -6 -365 -11 -93 -5 -246 -13 -340
-17 -186 -9 -3193 -7 -3710 2 -891 16 -1588 37 -2295 70 -804 38 -1315 68
-2120 125 -354 25 -1007 81 -1023 88 -17 7 -15 13 22 69 168 250 405 386 756
434 56 7 325 14 705 19 645 8 682 10 870 59 356 91 570 329 599 666 7 89 0
285 -14 358 l-7 37 485 0 485 0 7 -32z m8617 -68 c-8 -273 -54 -441 -152 -552
-142 -162 -430 -242 -865 -240 -636 2 -968 142 -1126 478 -45 95 -76 216 -85
332 l-7 82 1119 -2 1118 -3 -2 -95z"/>
<path d="M3455 7302 c-48 -30 -58 -47 -50 -91 5 -33 -3 -63 -50 -187 -108
-284 -137 -370 -176 -524 -25 -96 -48 -163 -60 -176 -10 -11 -19 -32 -19 -47
0 -28 11 -34 75 -39 28 -3 30 -1 36 47 13 96 59 260 76 272 9 7 32 11 52 8 20
-2 76 -7 125 -10 101 -7 188 -21 227 -36 26 -10 71 -79 155 -234 51 -95 59
-103 118 -114 104 -20 132 -21 151 -7 17 12 15 17 -34 73 -184 209 -366 540
-477 868 -32 94 -64 180 -72 193 -17 27 -37 28 -77 4z m35 -257 c0 -19 66
-184 119 -299 23 -49 41 -89 41 -90 0 -1 -75 1 -167 4 l-168 5 3 25 c3 25 70
200 122 315 27 60 50 78 50 40z"/>
<path d="M4869 7268 c-208 -73 -333 -283 -346 -583 -7 -176 26 -296 109 -391
95 -109 230 -135 418 -83 43 12 68 14 75 8 6 -6 10 -40 10 -77 0 -65 1 -67 25
-67 37 0 47 31 70 228 23 195 23 260 0 265 -30 5 -50 -23 -61 -83 -14 -84 -17
-91 -46 -126 -56 -66 -191 -105 -298 -85 -53 10 -110 67 -132 129 -25 75 -23
265 5 370 61 224 204 414 327 433 63 9 90 -1 144 -51 54 -50 61 -53 84 -27 36
40 9 99 -60 132 -74 35 -234 39 -324 8z"/>
</g>
</svg>
